<svg width="24" height="25" viewBox="0 0 24 25" fill="none" xmlns="http://www.w3.org/2000/svg"><path d="M15.4922 22.9358C15.0822 22.9358 14.7422 22.5958 14.7422 22.1858C14.7422 21.7758 15.0822 21.4358 15.4922 21.4358C16.8122 21.4358 17.4722 21.4358 17.9422 21.2958C18.4538 21.1392 18.9192 20.8595 19.2976 20.4812C19.6759 20.1028 19.9556 19.6374 20.1122 19.1258C20.2522 18.6658 20.2522 18.0058 20.2522 16.6858C20.2522 16.2758 20.5922 15.9358 21.0022 15.9358C21.4122 15.9358 21.7522 16.2758 21.7522 16.6858C21.7522 18.1458 21.7522 18.8858 21.5522 19.5558C21.3256 20.3043 20.9177 20.9853 20.3647 21.5383C19.8117 22.0913 19.1307 22.4992 18.3822 22.7258C17.7022 22.9258 16.9622 22.9258 15.5022 22.9258L15.4922 22.9358ZM8.49219 22.9358C7.03219 22.9358 6.29219 22.9358 5.62219 22.7358C4.87367 22.5092 4.19268 22.1013 3.63968 21.5483C3.08668 20.9953 2.67878 20.3143 2.45219 19.5658C2.25219 18.8858 2.25219 18.1458 2.25219 16.6858C2.25219 16.2758 2.59219 15.9358 3.00219 15.9358C3.41219 15.9358 3.75219 16.2758 3.75219 16.6858C3.75219 18.0058 3.75219 18.6658 3.89219 19.1358C4.04875 19.6474 4.32848 20.1128 4.70682 20.4912C5.08516 20.8695 5.55055 21.1492 6.06219 21.3058C6.52219 21.4458 7.18219 21.4458 8.50219 21.4458C8.91219 21.4458 9.25219 21.7858 9.25219 22.1958C9.25219 22.6058 8.91219 22.9458 8.50219 22.9458L8.49219 22.9358ZM20.9922 10.4358C20.5822 10.4358 20.2422 10.0958 20.2422 9.68578C20.2422 8.36578 20.2422 7.70578 20.1022 7.23578C19.9456 6.72415 19.6659 6.25875 19.2876 5.88041C18.9092 5.50207 18.4438 5.22235 17.9322 5.06578C17.4722 4.92578 16.8122 4.92578 15.4922 4.92578C15.0822 4.92578 14.7422 4.58578 14.7422 4.17578C14.7422 3.76578 15.0822 3.42578 15.4922 3.42578C16.9522 3.42578 17.6922 3.42578 18.3622 3.62578C19.1107 3.85237 19.7917 4.26028 20.3447 4.81328C20.8977 5.36628 21.3056 6.04727 21.5322 6.79578C21.7322 7.47578 21.7322 8.21578 21.7322 9.67578C21.7322 10.0858 21.3922 10.4258 20.9822 10.4258L20.9922 10.4358ZM2.99219 10.4358C2.58219 10.4358 2.24219 10.0958 2.24219 9.68578C2.24219 8.22578 2.24219 7.48578 2.44219 6.81578C2.66878 6.06727 3.07668 5.38628 3.62968 4.83328C4.18268 4.28028 4.86367 3.87237 5.61219 3.64578C6.29219 3.44578 7.03219 3.44578 8.49219 3.44578C8.90219 3.44578 9.24219 3.78578 9.24219 4.19578C9.24219 4.60578 8.90219 4.94578 8.49219 4.94578C7.17219 4.94578 6.51219 4.94578 6.04219 5.08578C5.53055 5.24235 5.06516 5.52207 4.68682 5.90041C4.30848 6.27875 4.02875 6.74415 3.87219 7.25578C3.73219 7.71578 3.73219 8.37578 3.73219 9.69578C3.73219 10.1058 3.39219 10.4458 2.98219 10.4458L2.99219 10.4358Z" fill="white"></path></svg>